<svg xmlns="http://www.w3.org/2000/svg" viewBox="0 0 500 500"><g id="freepik--Floor--inject-42"><path id="freepik--floor--inject-42" d="M90.93,431.19c87.42,48.43,229.16,48.43,316.58,0s87.42-126.94,0-175.37-229.16-48.42-316.58,0S3.51,382.76,90.93,431.19Z" style="fill:#f5f5f5"></path></g><g id="freepik--Shadow--inject-42"><path id="freepik--shadow--inject-42" d="M395.55,411.06l3.53-2c2.39-1.38,2.39-3.62,0-5L289.94,341a9.57,9.57,0,0,0-8.66,0l-3.53,2c-2.39,1.38-2.39,3.62,0,5l109.14,63A9.51,9.51,0,0,0,395.55,411.06Z" style="fill:#e0e0e0"></path><path id="freepik--shadow--inject-42" d="M86.83,350.55l56.33,32.52a9.57,9.57,0,0,0,8.66,0l36-20.8c2.4-1.38,2.4-3.62,0-5l-56.33-32.52a9.57,9.57,0,0,0-8.66,0l-36,20.8C84.44,346.93,84.44,349.16,86.83,350.55Z" style="fill:#e0e0e0"></path></g><g id="freepik--Plants--inject-42"><g id="freepik--plants--inject-42"><path d="M390.79,366.78c-.81-9.59,4.47-30,13.38-43.33s23.8-23.71,35.23-20.84c10.65,2.68,10.67,16.35-1.14,26.41s-29.75,22.94-34,39l-10,20.06Z" style="fill:#B0BEC5"></path><path d="M390.79,366.78c-.81-9.59,4.47-30,13.38-43.33s23.8-23.71,35.23-20.84c10.65,2.68,10.67,16.35-1.14,26.41s-29.75,22.94-34,39l-10,20.06Z" style="opacity:0.1"></path><path d="M391.18,380a.7.7,0,0,0,.58-.62c3.68-33.28,27.94-62.12,43.31-69.33a.7.7,0,0,0-.6-1.27c-15.66,7.34-40.37,36.66-44.11,70.45a.7.7,0,0,0,.62.77Z" style="fill:#fff"></path><path d="M397.82,400.52c1.09-5.52,6.93-15,17-23.22,11.11-9.11,25.71-14.1,28.62-20.72,3.49-7.95-3.52-14.59-15.5-12.08s-31.88,20.81-33.2,46Z" style="fill:#B0BEC5"></path><path d="M395,395.06a.74.74,0,0,0,.57-.52c7.69-28.89,28.27-40.53,38.07-42.65a.7.7,0,0,0,.54-.83.68.68,0,0,0-.83-.54c-10.85,2.34-31.29,14.17-39.14,43.66a.7.7,0,0,0,.49.86A.76.76,0,0,0,395,395.06Z" style="fill:#fff"></path><path d="M89.24,296.82c-.67-8.33-4.48-22-14.17-35-10.36-13.93-23-22.65-32.38-18.57C33.94,247,37.26,259.08,52.3,271c10.56,8.35,21.51,19.22,27.39,32.34L89.24,320Z" style="fill:#B0BEC5"></path><g style="opacity:0.1"><path d="M89.24,296.82c-.67-8.33-4.48-22-14.17-35-10.36-13.93-23-22.65-32.38-18.57C33.94,247,37.26,259.08,52.3,271c10.56,8.35,21.51,19.22,27.39,32.34L89.24,320Z"></path></g><path d="M88.39,303.17a.58.58,0,0,1-.55-.39C79.45,279.69,62,256.32,47.22,248.43a.59.59,0,0,1-.25-.8.59.59,0,0,1,.8-.24c15,8,32.71,31.65,41.18,55a.59.59,0,0,1-.35.75A.52.52,0,0,1,88.39,303.17Z" style="fill:#fff"></path><path d="M88.39,325.28a35.21,35.21,0,0,1-16.71,7.16c-10.52,1.67-15.17-3.37-15.17-3.37s4.15-9.87,10.12-12.64c0,0-10.13,2.06-18.27,7.49,0,0-6.43.1-9-9.71,0,0,3.81-5.91,16.59-9.1,0,0-7.77-1.95-19,.9-.84.34-4.42-12.35-5.5-18.2s1.27-5.79,5.83-7,20.1-2,23,.52,4.3,11.09,4.3,11.09,2.74-4.85,2.08-9.18a16.28,16.28,0,0,1,9.71.23c5.13,1.78,4.8,4.28,4.8,8a39.21,39.21,0,0,1-1.54,11.11s3.54-3.06,3.67-14.36c0,0,6.93,5.93,9.71,11S95.08,317.68,88.39,325.28Z" style="fill:#B0BEC5"></path><path d="M88.39,325.87a.58.58,0,0,1-.53-.33c-8.49-17.65-40.08-38.16-51.4-40.36a.59.59,0,0,1,.23-1.16c11.5,2.23,43.61,23.07,52.24,41a.59.59,0,0,1-.28.79A.58.58,0,0,1,88.39,325.87Z" style="fill:#fff"></path></g></g><g id="freepik--Clouds--inject-42"><g id="freepik--clouds--inject-42"><path d="M105,61.52l-8.3,4.79a10.32,10.32,0,0,0,.07-1.1v-2.4c0-4.27-3-6-6.7-3.87a13.11,13.11,0,0,0-4,3.84c-.6-5.37-4.82-7.38-10-4.42-5.54,3.2-10,11-10,17.38v3.59a9.55,9.55,0,0,0,.85,4.17l-6.89,4a8.24,8.24,0,0,0-3.72,6.45c0,2.37,1.67,3.33,3.72,2.14l45-25.95a8.22,8.22,0,0,0,3.72-6.44C108.7,61.3,107,60.34,105,61.52Z" style="fill:#ebebeb"></path><path d="M380.82,89.28l2.57,1V84.62c0-4.48,3.57-5.56,7.44-3.32h0a15.53,15.53,0,0,1,7,12.16v.82a3.74,3.74,0,0,1,3.25.51h0a11.15,11.15,0,0,1,5.06,8.75v.37l3.57,2.07a7.35,7.35,0,0,1,3.33,5.76c0,2.12-1.49,3-3.33,1.92L380.82,97a7.35,7.35,0,0,1-3.33-5.76C377.49,89.08,379,88.22,380.82,89.28Z" style="fill:#ebebeb"></path></g></g><g id="freepik--device-2--inject-42"><g id="freepik--device-2--inject-42"><path d="M392.21,406.81l2.56-1.48a8.32,8.32,0,0,0,3.76-6.53V174.4a8.32,8.32,0,0,0-3.76-6.53l-103.5-59.75a8.33,8.33,0,0,0-7.53,0l-2.56,1.48a8.32,8.32,0,0,0-3.77,6.52V340.53a8.32,8.32,0,0,0,3.77,6.52l103.5,59.76A8.33,8.33,0,0,0,392.21,406.81Z" style="fill:#37474f"></path><path d="M383.39,178.79l14-8.11a7.71,7.71,0,0,1,1.1,3.72V398.8a8.32,8.32,0,0,1-3.76,6.53l-2.56,1.48a8.33,8.33,0,0,1-7.53,0l-1.29-.74Z" style="fill:#263238"></path><path d="M388.44,180.22V404.63c0,2.4-1.68,3.38-3.76,2.18l-103.5-59.76a8.32,8.32,0,0,1-3.77-6.52V116.12c0-2.4,1.69-3.38,3.77-2.17l103.5,59.75A8.31,8.31,0,0,1,388.44,180.22Z" style="fill:#455a64"></path><path d="M380.17,194.41l-94.48-54.55c-1.79-1-3.23-.2-3.23,1.86v179a7.11,7.11,0,0,0,3.23,5.59l94.48,54.55c1.78,1,3.22.2,3.22-1.86V200A7.14,7.14,0,0,0,380.17,194.41Z" style="fill:#B0BEC5"></path><path d="M296.88,253.07l4.94-1.61c-3.92-23.19,4-29.64,16.16-29.09-5.13,2.3-9.12,14.07-6.69,26l4.94-1.6c1-.31,2.26,1.5,2.09,3l-2.44,21.57c-.12,1-.89,1.24-1.66.54l-16.91-15.3C296.17,255.52,295.91,253.38,296.88,253.07Z" style="fill:#fff"></path><path d="M313.46,236.69c.92-6.94,3.77-12.43,7.1-13.92,0,0,12.55,2.75,22.41,22.24C343,245,327.48,228.41,313.46,236.69Z" style="fill:#fff;opacity:0.8"></path><path d="M360.61,278l-4.94,1.61c3.91,23.19-4,29.64-16.16,29.09,5.12-2.3,9.11-14.07,6.68-26l-4.94,1.6c-1,.31-2.25-1.5-2.09-3l2.45-21.57c.11-1,.88-1.24,1.65-.54l16.91,15.3C361.31,275.5,361.58,277.64,360.61,278Z" style="fill:#fff"></path><path d="M344,294.33c-.93,6.94-3.78,12.43-7.11,13.92,0,0-12.55-2.75-22.41-22.24C314.51,286,330,302.61,344,294.33Z" style="fill:#fff;opacity:0.8"></path><path d="M332.93,149.65c-1.4-.8-2.53-.15-2.53,1.46a5.57,5.57,0,0,0,2.53,4.37c1.39.8,2.52.15,2.52-1.46A5.57,5.57,0,0,0,332.93,149.65Z" style="fill:#263238"></path><path d="M340.21,162.26c-5.12-2.84-14.27-8.28-19.33-11.26-.85-.5-1.55-.15-1.55.78a3.33,3.33,0,0,0,1.56,2.59l19.36,11.19c.87.49,1.56.14,1.56-.79A3.19,3.19,0,0,0,340.21,162.26Z" style="fill:#263238"></path><path d="M345.1,165.08c-.78-.45-1.41-.08-1.41.82a3.13,3.13,0,0,0,1.41,2.45c.79.46,1.42.09,1.42-.81A3.11,3.11,0,0,0,345.1,165.08Z" style="fill:#263238"></path><path d="M332.93,359.45c-2.79-1.61-5.05-.31-5.05,2.91a11.15,11.15,0,0,0,5.05,8.74c2.78,1.61,5,.31,5-2.91A11.15,11.15,0,0,0,332.93,359.45Z" style="fill:#263238"></path></g></g><g id="freepik--device-1--inject-42"><g id="freepik--device-1--inject-42"><path d="M154.41,334.66c-17.58-10.15-31.83-34.83-31.83-55.12V212.86h0l-8-4.61c-8.77-5.06-16.72-5.55-22.47-2.24l-.07,0-.21.16c-5.61,3.38-9.08,10.43-9.08,20.43v75.89c0,20.3,14.25,45,31.83,55.12l16,9.22c17.58,10.15,31.83,1.92,31.83-18.37v-9.22Z" style="fill:#263238"></path><path d="M192,255.38v75.88a30.6,30.6,0,0,1-2.52,12.92,16.9,16.9,0,0,1-6.9,7.73L153.1,369.07c5.74-3.33,9.29-10.45,9.29-20.58v-75.9c0-20.29-14.25-45-31.83-55.12l-16-9.22c-5.11-2.95-9.94-4.35-14.21-4.35-.38,0-.75,0-1.13,0H99.2c-.33,0-.65.05-1,.09l-.2,0-.83.13a12.2,12.2,0,0,0-1.26.27c-.33.09-.65.18-1,.29a5.35,5.35,0,0,0-.67.24,1.25,1.25,0,0,0-.27.1c-.28.11-.55.22-.81.35a5.1,5.1,0,0,0-.57.29l-.11.05,29.17-17,0,0,.16-.09h0c5.74-3.21,13.62-2.7,22.32,2.32l16,9.22C177.79,210.39,192,235.08,192,255.38Z" style="fill:#455a64"></path><path d="M162.39,272.6c0-20.3-14.25-45-31.83-55.13l-16-9.22C97,198.11,82.77,206.33,82.77,226.63v75.89c0,20.3,14.25,45,31.83,55.12l16,9.22c17.58,10.15,31.83,1.92,31.83-18.37Zm-4.9,75.89c0,5.83-1.32,10.57-3.82,13.7a10.82,10.82,0,0,1-8.89,4.12h0c-3.52,0-7.59-1.28-11.77-3.69l-16-9.22c-15.93-9.19-29.38-32.49-29.38-50.88V226.63c0-11.16,4.75-17.82,12.71-17.82a24.25,24.25,0,0,1,11.77,3.69l16,9.21c15.93,9.2,29.38,32.5,29.38,50.89Z" style="fill:#37474f"></path><path d="M152,205.09l-16-9.21c-8.8-5.07-16.75-5.57-22.5-2.24l-.32.17-1.6.94c-1,.56-2.19,1.28-3.44,2l-1.39.8-.89.51c-.28.18-.57.34-.83.49l-.77.44-1.55.88-.18.12a29.13,29.13,0,0,1,5.3-.77h.65a21.32,21.32,0,0,1,4.2.41c.86.17,1.73.38,2.62.65.3.08.6.18.9.29a18.68,18.68,0,0,1,1.83.68s0,0,0,0a35.92,35.92,0,0,1,4.67,2.3l16,9.21a56.06,56.06,0,0,1,13.79,11.6c.47.52.93,1.06,1.37,1.61,9.93,12,16.66,28,16.66,41.91v75.9c0,.64,0,1.28-.05,1.89s-.06,1.21-.12,1.8-.13,1.16-.21,1.74-.17,1.07-.27,1.59a.36.36,0,0,1,0,.1c-.09.45-.19.87-.29,1.3a2.64,2.64,0,0,1-.14.48c-.08.39-.2.75-.31,1.12s-.29.9-.46,1.32c-.06.16-.11.31-.19.48a16.84,16.84,0,0,1-.89,1.92,11,11,0,0,1-.71,1.26s0,0,0,0a16.14,16.14,0,0,1-5.66,5.58l13.32-7.7c5.73-3.33,9.28-10.45,9.28-20.57V260.21C183.85,239.9,169.61,215.24,152,205.09Z" style="fill:#37474f"></path><path d="M144.7,272.68v57.86a11.59,11.59,0,0,0,5.08,9.18c2.8,1.62,7.5,1.53,10.49-.19l39.95-23.07a11.94,11.94,0,0,0,5.41-9.37V249.23a11.59,11.59,0,0,0-5.08-9.18c-2.8-1.62-7.5-1.53-10.49.19l-39.95,23.07A11.94,11.94,0,0,0,144.7,272.68Z" style="fill:#263238"></path><path d="M161.18,276.35l-15.06-8.69a11,11,0,0,0-1.42,5v57.86a11.59,11.59,0,0,0,5.08,9.18c2.8,1.62,7.5,1.53,10.49-.19l1.59-.92Z" style="fill:#455a64"></path><path d="M200.22,246.11l-39.95,23.06a12,12,0,0,0-5.42,9.38V336.4c0,3.45,2.43,4.85,5.42,3.13l39.95-23.07a11.94,11.94,0,0,0,5.41-9.37V249.23C205.63,245.78,203.21,244.38,200.22,246.11Z" style="fill:#B0BEC5"></path><path d="M200.85,285l-3-1c2.38-14.09-2.42-18-9.82-17.67,3.12,1.39,5.54,8.55,4.07,15.81l-3-1c-.58-.19-1.37.91-1.27,1.79l1.49,13.11c.07.6.54.75,1,.33l10.27-9.3C201.28,286.53,201.44,285.23,200.85,285Z" style="fill:#fff"></path><path d="M190.78,275.09c-.56-4.22-2.29-7.56-4.32-8.46,0,0-7.62,1.67-13.61,13.51C172.85,280.14,182.26,270.06,190.78,275.09Z" style="fill:#fff;opacity:0.8"></path><path d="M162.13,300.16l3,1c-2.38,14.1,2.42,18,9.82,17.68-3.11-1.4-5.54-8.55-4.06-15.81l3,1c.59.19,1.37-.91,1.27-1.79l-1.48-13.11c-.07-.6-.54-.75-1-.33L162.4,298C161.71,298.66,161.54,300,162.13,300.16Z" style="fill:#fff"></path><path d="M172.21,310.11c.56,4.21,2.29,7.55,4.31,8.46,0,0,7.63-1.68,13.62-13.52C190.14,305.05,180.73,315.14,172.21,310.11Z" style="fill:#fff;opacity:0.8"></path><path d="M188.69,237,159,254.16a62.25,62.25,0,0,1,2.66,10.19l29.67-17.13A63.3,63.3,0,0,0,188.69,237Z" style="fill:#455a64"></path><path d="M180.47,241.77l-13.28,7.66a62.25,62.25,0,0,1,2.66,10.19L183.12,252A63.23,63.23,0,0,0,180.47,241.77Z" style="fill:#37474f"></path><path d="M154.65,256.67c.56,1.68,1,3.36,1.45,5l5.08,2.94.48-.28A63.23,63.23,0,0,0,159,254.16Z" style="fill:#37474f"></path></g></g><g id="freepik--apps-icons--inject-42"><path d="M113.14,121.64a7.46,7.46,0,0,0-3.37-5.84L107,114.22a7.5,7.5,0,0,0-6.75,0L78.57,126.76a6.84,6.84,0,0,0-2.39,2.52,6.91,6.91,0,0,0-1,3.32v25.08a7.45,7.45,0,0,0,3.38,5.84l2.74,1.58a5.17,5.17,0,0,0,.71.34l.29.09a4,4,0,0,0,.49.15l.4.08.42.07.48,0,.35,0h.82l.62-.07.17,0q.33-.06.66-.15l.08,0a5.37,5.37,0,0,0,1.25-.51l21.72-12.54a7.45,7.45,0,0,0,3.37-5.84Z" style="fill:#B0BEC5"></path><path d="M113.1,121.07c-.25-1.72-1.64-2.35-3.33-1.37L88.05,132.24a6.81,6.81,0,0,0-2.38,2.52l-9.49-5.48a6.92,6.92,0,0,1,2.39-2.52l21.71-12.54a7.42,7.42,0,0,1,6.74,0l2.75,1.58A7.51,7.51,0,0,1,113.1,121.07Z" style="fill:#fff;opacity:0.4"></path><path d="M87.44,165.38l-.2.08c-.17,0-.33.11-.5.15a7.19,7.19,0,0,1-1.32.27h-.07c-.22,0-.44,0-.67,0a6.85,6.85,0,0,1-3.37-.8l-2.74-1.59a7.48,7.48,0,0,1-3.38-5.84V132.6a6.15,6.15,0,0,1,.41-2.09c.11-.28.23-.56.36-.82s.14-.28.22-.41l9.49,5.48a6.85,6.85,0,0,0-1,3.32v25.08c0,1.63.87,2.52,2.1,2.39l.21,0A2.32,2.32,0,0,0,87.44,165.38Z" style="opacity:0.1"></path><path d="M87.44,165.38l-.2.08-.25,0A2.32,2.32,0,0,0,87.44,165.38Z" style="fill:#B0BEC5"></path><path d="M93.74,134.84V150a5.69,5.69,0,0,0-4.12,5.39c0,1.77,1.24,2.49,2.78,1.6s3.37-3.4,3.37-5.17V137.93l8.91-5.09v10.89a6.38,6.38,0,0,0-1.35.58,5.11,5.11,0,0,0-2.26,4.5c0,1.77,1.24,2.48,2.78,1.6a6.15,6.15,0,0,0,2.77-4.81h0V127.43Z" style="fill:#fff"></path><path d="M139.51,126.76l21.72-12.54a7.48,7.48,0,0,1,6.74,0l2.75,1.59a7.43,7.43,0,0,1,3.37,5.83v25.08a7.45,7.45,0,0,1-3.37,5.84L149,165.1a7.44,7.44,0,0,1-6.75,0l-2.74-1.58a7.46,7.46,0,0,1-3.37-5.84V132.6A7.46,7.46,0,0,1,139.51,126.76Z" style="fill:#B0BEC5"></path><path d="M136.14,157.68a7.46,7.46,0,0,0,3.37,5.84l2.74,1.58a7.53,7.53,0,0,0,6.17.27c-1.59.6-2.79-.29-2.79-2.21V138.08a6.92,6.92,0,0,1,1-3.33l-9.49-5.47a6.83,6.83,0,0,0-1,3.32Z" style="opacity:0.1"></path><path d="M174.09,121.08c-.25-1.73-1.64-2.36-3.33-1.38L149,132.24a7.21,7.21,0,0,0-2.79,3.33,8.69,8.69,0,0,1,.4-.81l-9.48-5.48a6.91,6.91,0,0,1,2.39-2.52l21.71-12.54a7.42,7.42,0,0,1,6.74,0l2.75,1.59A7.49,7.49,0,0,1,174.09,121.08Z" style="fill:#fff;opacity:0.4"></path><polygon points="148.42 160.3 171.92 146.53 165.29 137.88 160.17 146.78 161.42 143.53 156.39 136.22 148.42 160.3" style="fill:#fff"></polygon><path d="M167.94,129.72a4.25,4.25,0,0,1-1.61,3.42c-.89.52-1.62-.18-1.62-1.55a4.27,4.27,0,0,1,1.62-3.42C167.22,127.65,167.94,128.35,167.94,129.72Z" style="fill:#fff"></path><path d="M235,121.07a7.51,7.51,0,0,0-3.33-5.27l-2.75-1.58a7.42,7.42,0,0,0-6.74,0l-21.71,12.54a7.46,7.46,0,0,0-3.38,5.84v25.08a7.45,7.45,0,0,0,3.38,5.84l2.74,1.59a6.82,6.82,0,0,0,3.36.8q.33,0,.66,0h.11a7,7,0,0,0,1.79-.41,1,1,0,0,0,.21-.08h0a.47.47,0,0,0,.17-.07,3.62,3.62,0,0,0,.4-.19l21.72-12.54a7.48,7.48,0,0,0,3.37-5.84V121.65A3.52,3.52,0,0,0,235,121.07Z" style="fill:#B0BEC5"></path><path d="M220.61,131.17c2.36-1.36,4.27-.26,4.27,2.47a9.44,9.44,0,0,1-4.27,7.4c-2.36,1.36-4.27.26-4.27-2.47A9.44,9.44,0,0,1,220.61,131.17Z" style="fill:#fff"></path><path d="M229,145.7c0-4.47-3.14-6.29-7-4l-2.42,1.4a15.51,15.51,0,0,0-7,12.16v1.2L229,146.74Z" style="fill:#fff"></path><path d="M235,121.07c-.25-1.72-1.64-2.35-3.33-1.37l-21.72,12.54a7.28,7.28,0,0,0-2.8,3.33c.13-.27.26-.55.41-.81l-9.48-5.48a6.76,6.76,0,0,1,2.39-2.52l21.71-12.54a7.42,7.42,0,0,1,6.74,0l2.75,1.58A7.51,7.51,0,0,1,235,121.07Z" style="fill:#fff;opacity:0.4"></path><path d="M209.33,165.38a1,1,0,0,1-.21.08,7,7,0,0,1-1.79.41h-.11q-.33,0-.66,0a6.82,6.82,0,0,1-3.36-.8l-2.74-1.59a7.45,7.45,0,0,1-3.38-5.84V132.6a6.77,6.77,0,0,1,1-3.32l9.48,5.48c-.15.26-.28.54-.41.81a6.47,6.47,0,0,0-.57,2.51v25.08c0,1.63.87,2.52,2.1,2.39l.21,0A2.32,2.32,0,0,0,209.33,165.38Z" style="opacity:0.1"></path></g></svg>